<svg width="270" height="270" viewBox="0 0 270 270" fill="none" xmlns="http://www.w3.org/2000/svg">
<g clip-path="url(#clip0_1885_27)">
<path d="M230.46 39.5402C204.962 14.0432 171.059 0 135 0C98.9408 0 65.0384 14.0426 39.5402 39.5402C14.0432 65.0384 0 98.9408 0 135C0 171.059 14.0426 204.962 39.5402 230.46C65.0384 255.957 98.9408 270 135 270C171.059 270 204.962 255.957 230.46 230.46C255.957 204.962 270 171.059 270 135C270 98.9408 255.957 65.0384 230.46 39.5402ZM58.5905 226.387C63.0487 188.031 96.0261 158.418 135 158.418C155.545 158.418 174.866 166.422 189.399 180.953C201.676 193.232 209.419 209.265 211.411 226.385C190.709 243.724 164.053 254.18 135 254.18C105.947 254.18 79.293 243.726 58.5905 226.387ZM135 142.123C112.392 142.123 93.9969 123.728 93.9969 101.12C93.9969 78.5104 112.393 60.1172 135 60.1172C157.607 60.1172 176.003 78.5104 176.003 101.12C176.003 123.728 157.608 142.123 135 142.123V142.123ZM225.028 213.012C220.963 196.643 212.512 181.692 200.584 169.768C190.862 160.045 179.359 152.75 166.814 148.179C181.895 137.952 191.823 120.673 191.823 101.12C191.823 69.7887 166.332 44.2969 135 44.2969C103.668 44.2969 78.1766 69.7887 78.1766 101.12C78.1766 120.684 88.1139 137.968 103.207 148.194C91.665 152.4 80.9847 158.903 71.7952 167.464C58.4877 179.857 49.2471 195.659 44.9624 212.999C26.8165 192.081 15.8203 164.801 15.8203 135C15.8203 69.284 69.284 15.8203 135 15.8203C200.716 15.8203 254.18 69.284 254.18 135C254.18 164.807 243.179 192.093 225.028 213.012Z" fill="black"/>
</g>
<defs>
<clipPath id="clip0_1885_27">
<rect width="270" height="270" fill="white"/>
</clipPath>
</defs>
</svg>
