<svg width="231" height="231" viewBox="0 0 231 231" fill="none" xmlns="http://www.w3.org/2000/svg">
<path d="M221.074 32.1175L43.664 1.69039C41.051 1.25028 38.3701 1.86201 36.2067 3.39198C34.0433 4.92195 32.5732 7.24583 32.1175 9.85609L1.6904 187.266C1.25029 189.879 1.86202 192.56 3.39199 194.723C4.92195 196.886 7.24584 198.357 9.8561 198.812L187.266 229.239C189.879 229.679 192.56 229.068 194.723 227.538C196.886 226.008 198.357 223.684 198.812 221.074L229.239 43.6639C229.679 41.051 229.068 38.3701 227.538 36.2067C226.008 34.0433 223.684 32.5732 221.074 32.1175ZM96.4025 206.892L10.983 192.242C10.1117 192.092 9.33541 191.603 8.82496 190.881C8.3145 190.159 8.11169 189.264 8.26113 188.393L34.7439 33.9806L123.449 49.1941L96.4025 206.892ZM192.242 219.947C192.092 220.818 191.603 221.594 190.881 222.105C190.159 222.615 189.264 222.818 188.393 222.669L102.973 208.019L104.1 201.448L182.949 214.971C183.82 215.12 184.715 214.918 185.437 214.407C186.159 213.897 186.648 213.12 186.798 212.249L193.559 172.825C193.709 171.953 193.506 171.058 192.995 170.337C192.485 169.615 191.709 169.125 190.837 168.976L111.989 155.453L113.679 145.597L153.103 152.358C153.975 152.508 154.87 152.305 155.592 151.794C156.313 151.284 156.803 150.508 156.952 149.636L163.714 110.212C163.863 109.341 163.66 108.446 163.15 107.724C162.64 107.002 161.863 106.513 160.992 106.363L121.568 99.6015L130.02 50.321L218.724 65.5346L192.242 219.947ZM105.227 194.877L110.862 162.023L186.425 174.983L180.79 207.837L105.227 194.877ZM114.806 139.026L120.441 106.172L156.58 112.37L150.945 145.224L114.806 139.026ZM219.851 58.9638L35.8709 27.4098L38.6882 10.983C38.8376 10.1117 39.3271 9.33541 40.0489 8.82495C40.7707 8.3145 41.6657 8.11168 42.537 8.26112L219.947 38.6882C220.818 38.8376 221.594 39.3271 222.105 40.0489C222.615 40.7707 222.818 41.6657 222.669 42.537L219.851 58.9638Z" fill="white"/>
<path d="M51.2664 16.5222L47.981 15.9588C47.1097 15.8093 46.2147 16.0122 45.4929 16.5226C44.7711 17.0331 44.2816 17.8093 44.1322 18.6807C43.9827 19.552 44.1856 20.447 44.696 21.1688C45.2065 21.8906 45.9828 22.3801 46.8541 22.5295L50.1395 23.093C51.0108 23.2424 51.9058 23.0396 52.6276 22.5291C53.3494 22.0187 53.8388 21.2424 53.9883 20.3711C54.1377 19.4997 53.9349 18.6047 53.4244 17.8829C52.914 17.1611 52.1377 16.6717 51.2664 16.5222ZM64.4078 18.7761L61.1225 18.2126C60.2511 18.0632 59.3561 18.266 58.6343 18.7765C57.9125 19.2869 57.4231 20.0632 57.2736 20.9345C57.1242 21.8059 57.327 22.7009 57.8375 23.4227C58.3479 24.1445 59.1242 24.6339 59.9955 24.7834L63.2809 25.3468C64.1522 25.4963 65.0473 25.2934 65.769 24.783C66.4908 24.2725 66.9803 23.4963 67.1297 22.6249C67.2792 21.7536 67.0764 20.8586 66.5659 20.1368C66.0555 19.415 65.2792 18.9255 64.4078 18.7761ZM77.5493 21.03L74.2639 20.4665C73.3926 20.317 72.4976 20.5199 71.7758 21.0303C71.054 21.5408 70.5645 22.3171 70.4151 23.1884C70.2657 24.0597 70.4685 24.9547 70.9789 25.6765C71.4894 26.3983 72.2657 26.8878 73.137 27.0372L76.4224 27.6007C77.2937 27.7501 78.1887 27.5473 78.9105 27.0369C79.6323 26.5264 80.1218 25.7501 80.2712 24.8788C80.4206 24.0074 80.2178 23.1124 79.7074 22.3906C79.1969 21.6688 78.4206 21.1794 77.5493 21.03ZM214.971 47.9808C215.121 47.1095 214.918 46.2145 214.407 45.4927C213.897 44.7709 213.121 44.2814 212.249 44.132L97.2615 24.4107C96.3901 24.2613 95.4951 24.4641 94.7733 24.9746C94.0515 25.485 93.5621 26.2613 93.4127 27.1326C93.2632 28.004 93.466 28.899 93.9765 29.6208C94.4869 30.3426 95.2632 30.832 96.1346 30.9815L211.122 50.7027C211.994 50.8522 212.889 50.6493 213.61 50.1389C214.332 49.6284 214.822 48.8522 214.971 47.9808ZM79.7561 70.6335C79.9339 71.0336 80.1889 71.3947 80.5063 71.6962C80.8237 71.9977 81.1974 72.2338 81.6061 72.3909C82.0147 72.5479 82.4503 72.623 82.888 72.6117C83.3257 72.6004 83.7568 72.503 84.1568 72.3251L95.1398 67.4447C95.6413 67.2219 96.0799 66.8787 96.4168 66.4456C96.7538 66.0125 96.9786 65.503 97.0714 64.9622C97.1641 64.4214 97.1219 63.866 96.9486 63.3454C96.7752 62.8248 96.476 62.3551 96.0775 61.9779L87.3483 53.7168C86.7063 53.1088 85.8491 52.7808 84.9652 52.8049C84.0814 52.829 83.2433 53.2033 82.6354 53.8453C82.0275 54.4873 81.6995 55.3445 81.7236 56.2283C81.7477 57.1122 82.1219 57.9502 82.7639 58.5582L87.8716 63.3843L81.4575 66.2345C81.0568 66.4114 80.6949 66.6656 80.3925 66.9825C80.0901 67.2994 79.8531 67.6728 79.6951 68.0813C79.537 68.4899 79.4611 68.9256 79.4716 69.3635C79.4821 69.8014 79.5787 70.233 79.7561 70.6335ZM38.9273 57.8039L47.6564 66.065C47.9743 66.366 48.3484 66.6014 48.7573 66.7579C49.1662 66.9143 49.6019 66.9887 50.0395 66.9768C50.4771 66.9648 50.9081 66.8668 51.3079 66.6883C51.7076 66.5098 52.0683 66.2543 52.3693 65.9365C52.6703 65.6186 52.9058 65.2445 53.0622 64.8356C53.2187 64.4267 53.2931 63.991 53.2811 63.5534C53.2692 63.1158 53.1712 62.6848 52.9927 62.285C52.8142 61.8853 52.5587 61.5246 52.2408 61.2236L47.1331 56.3974L53.5472 53.5473C53.9472 53.3694 54.3083 53.1144 54.6098 52.797C54.9113 52.4796 55.1473 52.1059 55.3044 51.6972C55.4615 51.2886 55.5365 50.853 55.5253 50.4154C55.514 49.9777 55.4166 49.5466 55.2388 49.1465C55.0609 48.7465 54.8059 48.3854 54.4885 48.0839C54.1711 47.7824 53.7974 47.5464 53.3887 47.3893C52.9801 47.2323 52.5445 47.1572 52.1069 47.1685C51.6692 47.1797 51.2381 47.2771 50.838 47.455L39.855 52.3353C39.3536 52.5582 38.915 52.9014 38.578 53.3344C38.2411 53.7675 38.0162 54.2771 37.9235 54.8179C37.8307 55.3587 37.8729 55.914 38.0463 56.4346C38.2197 56.9552 38.5189 57.425 38.9174 57.8022L38.9273 57.8039ZM57.1095 71.19C57.5595 71.5635 58.1008 71.8104 58.6778 71.9054C59.2558 72.0063 59.8503 71.9528 60.4011 71.7504C60.9518 71.5479 61.4394 71.2036 61.8145 70.7524L78.9002 50.0087C79.1908 49.6724 79.4112 49.2815 79.5484 48.8589C79.6857 48.4362 79.7371 47.9904 79.6996 47.5476C79.662 47.1048 79.5363 46.674 79.3299 46.2805C79.1234 45.887 78.8404 45.5387 78.4974 45.2562C78.1543 44.9737 77.7583 44.7626 77.3325 44.6354C76.9068 44.5081 76.4598 44.4673 76.0181 44.5153C75.5763 44.5633 75.1486 44.6992 74.7601 44.9149C74.3715 45.1306 74.0301 45.4218 73.7558 45.7714L56.6701 66.5151C56.1117 67.1947 55.8446 68.0674 55.9269 68.943C56.0092 69.8187 56.4343 70.6264 57.1095 71.19ZM36.7117 81.6661L43.2825 82.793C44.1538 82.9424 45.0488 82.7396 45.7706 82.2292C46.4924 81.7187 46.9818 80.9424 47.1313 80.0711C47.2807 79.1998 47.0779 78.3047 46.5675 77.583C46.057 76.8612 45.2807 76.3717 44.4094 76.2223L37.8387 75.0953C36.9673 74.9459 36.0723 75.1487 35.3505 75.6592C34.6287 76.1696 34.1393 76.9459 33.9898 77.8172C33.8404 78.6886 34.0432 79.5836 34.5537 80.3054C35.0641 81.0272 35.8404 81.5166 36.7117 81.6661ZM34.4579 94.8075L80.453 102.696C81.3243 102.845 82.2193 102.643 82.9411 102.132C83.6629 101.622 84.1524 100.845 84.3018 99.9741C84.4512 99.1028 84.2484 98.2078 83.738 97.486C83.2275 96.7642 82.4512 96.2747 81.5799 96.1253L35.5848 88.2368C34.7135 88.0874 33.8185 88.2902 33.0967 88.8006C32.3749 89.3111 31.8854 90.0874 31.736 90.9587C31.5865 91.83 31.7893 92.725 32.2998 93.4468C32.8103 94.1686 33.5865 94.6581 34.4579 94.8075ZM56.4239 85.0468L105.704 93.4988C106.576 93.6483 107.471 93.4454 108.193 92.935C108.914 92.4245 109.404 91.6482 109.553 90.7769C109.703 89.9056 109.5 89.0106 108.989 88.2888C108.479 87.567 107.703 87.0775 106.831 86.9281L57.5508 78.4761C56.6795 78.3267 55.7845 78.5295 55.0627 79.04C54.3409 79.5504 53.8515 80.3267 53.702 81.198C53.5526 82.0694 53.7554 82.9644 54.2658 83.6862C54.7763 84.408 55.5526 84.8974 56.4239 85.0468ZM27.6963 134.232L34.267 135.359C35.1384 135.508 36.0334 135.305 36.7552 134.795C37.477 134.285 37.9664 133.508 38.1159 132.637C38.2653 131.766 38.0625 130.871 37.552 130.149C37.0416 129.427 36.2653 128.938 35.394 128.788L28.8232 127.661C27.9519 127.512 27.0569 127.715 26.3351 128.225C25.6133 128.735 25.1238 129.512 24.9744 130.383C24.825 131.254 25.0278 132.149 25.5382 132.871C26.0487 133.593 26.825 134.082 27.6963 134.232ZM95.562 152.635L26.5694 140.803C25.698 140.653 24.803 140.856 24.0812 141.366C23.3594 141.877 22.87 142.653 22.7205 143.525C22.5711 144.396 22.7739 145.291 23.2844 146.013C23.7948 146.734 24.5711 147.224 25.4424 147.373L94.4351 159.206C95.3064 159.356 96.2014 159.153 96.9232 158.642C97.645 158.132 98.1345 157.356 98.2839 156.484C98.4334 155.613 98.2306 154.718 97.7201 153.996C97.2096 153.274 96.4334 152.785 95.562 152.635ZM74.8183 135.55L48.5354 131.042C47.6641 130.893 46.7691 131.095 46.0473 131.606C45.3255 132.116 44.836 132.893 44.6866 133.764C44.5371 134.635 44.74 135.53 45.2504 136.252C45.7609 136.974 46.5372 137.463 47.4085 137.613L73.6914 142.12C74.5627 142.27 75.4577 142.067 76.1795 141.557C76.9013 141.046 77.3908 140.27 77.5402 139.398C77.6897 138.527 77.4869 137.632 76.9764 136.91C76.4659 136.189 75.6897 135.699 74.8183 135.55ZM20.9347 173.656L27.5055 174.783C28.3768 174.933 29.2718 174.73 29.9936 174.219C30.7154 173.709 31.2048 172.933 31.3543 172.061C31.5037 171.19 31.3009 170.295 30.7905 169.573C30.28 168.851 29.5037 168.362 28.6324 168.212L22.0617 167.086C21.1903 166.936 20.2953 167.139 19.5735 167.649C18.8517 168.16 18.3623 168.936 18.2128 169.807C18.0634 170.679 18.2662 171.574 18.7767 172.296C19.2871 173.017 20.0634 173.507 20.9347 173.656ZM91.0543 178.918L41.7738 170.466C40.9025 170.317 40.0075 170.52 39.2857 171.03C38.5639 171.541 38.0745 172.317 37.925 173.188C37.7756 174.06 37.9784 174.955 38.4888 175.676C38.9993 176.398 39.7756 176.888 40.6469 177.037L89.9274 185.489C90.7987 185.638 91.6937 185.436 92.4155 184.925C93.1373 184.415 93.6268 183.638 93.7762 182.767C93.9256 181.896 93.7228 181.001 93.2124 180.279C92.7019 179.557 91.9256 179.068 91.0543 178.918ZM29.9502 121.09L56.2331 125.598C57.1044 125.748 57.9994 125.545 58.7212 125.034C59.443 124.524 59.9325 123.748 60.0819 122.876C60.2313 122.005 60.0285 121.11 59.5181 120.388C59.0076 119.666 58.2313 119.177 57.36 119.027L31.0771 114.52C30.2058 114.37 29.3107 114.573 28.589 115.084C27.8672 115.594 27.3777 116.37 27.2283 117.242C27.0788 118.113 27.2816 119.008 27.7921 119.73C28.3025 120.452 29.0788 120.941 29.9502 121.09ZM77.0722 122.408L70.5015 121.281C69.6301 121.132 68.7351 121.335 68.0133 121.845C67.2915 122.356 66.8021 123.132 66.6526 124.003C66.5032 124.875 66.706 125.77 67.2165 126.491C67.7269 127.213 68.5032 127.703 69.3745 127.852L75.9453 128.979C76.8166 129.128 77.7116 128.926 78.4334 128.415C79.1552 127.905 79.6446 127.128 79.7941 126.257C79.9435 125.386 79.7407 124.491 79.2303 123.769C78.7198 123.047 77.9435 122.558 77.0722 122.408ZM23.1886 160.515L49.4715 165.023C50.3428 165.172 51.2378 164.969 51.9596 164.459C52.6814 163.948 53.1709 163.172 53.3203 162.301C53.4698 161.429 53.267 160.534 52.7565 159.812C52.246 159.091 51.4698 158.601 50.5984 158.452L24.3155 153.944C23.4442 153.795 22.5492 153.997 21.8274 154.508C21.1056 155.018 20.6161 155.795 20.4667 156.666C20.3172 157.537 20.5201 158.432 21.0305 159.154C21.541 159.876 22.3173 160.365 23.1886 160.515ZM69.1837 168.403C70.055 168.553 70.95 168.35 71.6718 167.839C72.3936 167.329 72.8831 166.553 73.0325 165.681C73.182 164.81 72.9791 163.915 72.4687 163.193C71.9582 162.471 71.182 161.982 70.3106 161.833L63.7399 160.706C62.8686 160.556 61.9735 160.759 61.2517 161.269C60.53 161.78 60.0405 162.556 59.8911 163.428C59.7416 164.299 59.9444 165.194 60.4549 165.916C60.9653 166.637 61.7416 167.127 62.613 167.276L69.1837 168.403ZM46.0907 184.735L19.8078 180.227C18.9365 180.078 18.0415 180.28 17.3197 180.791C16.5979 181.301 16.1084 182.078 15.959 182.949C15.8095 183.82 16.0123 184.715 16.5228 185.437C17.0333 186.159 17.8095 186.648 18.6809 186.798L44.9638 191.305C45.8351 191.455 46.7301 191.252 47.4519 190.742C48.1737 190.231 48.6632 189.455 48.8126 188.584C48.9621 187.712 48.7592 186.817 48.2488 186.095C47.7383 185.374 46.9621 184.884 46.0907 184.735ZM65.8029 188.115L59.2322 186.989C58.3608 186.839 57.4658 187.042 56.744 187.552C56.0222 188.063 55.5328 188.839 55.3833 189.71C55.2339 190.582 55.4367 191.477 55.9472 192.199C56.4576 192.92 57.2339 193.41 58.1052 193.559L64.676 194.686C65.5473 194.836 66.4423 194.633 67.1641 194.122C67.8859 193.612 68.3754 192.836 68.5248 191.964C68.6742 191.093 68.4714 190.198 67.961 189.476C67.4505 188.754 66.6742 188.265 65.8029 188.115ZM32.204 107.949L38.7747 109.076C39.6461 109.225 40.5411 109.023 41.2629 108.512C41.9847 108.002 42.4741 107.225 42.6236 106.354C42.773 105.483 42.5702 104.588 42.0597 103.866C41.5493 103.144 40.773 102.655 39.9017 102.505L33.3309 101.378C32.4596 101.229 31.5646 101.432 30.8428 101.942C30.121 102.453 29.6316 103.229 29.4821 104.1C29.3327 104.971 29.5355 105.866 30.0459 106.588C30.5564 107.31 31.3327 107.8 32.204 107.949ZM101.76 116.496C101.91 115.625 101.707 114.73 101.196 114.008C100.686 113.286 99.9096 112.797 99.0382 112.648L53.0431 104.759C52.1718 104.61 51.2768 104.812 50.555 105.323C49.8332 105.833 49.3437 106.61 49.1943 107.481C49.0449 108.352 49.2477 109.247 49.7581 109.969C50.2686 110.691 51.0449 111.18 51.9162 111.33L97.9113 119.218C98.7826 119.368 99.6776 119.165 100.399 118.654C101.121 118.144 101.611 117.368 101.76 116.496ZM133.678 88.1504L196.1 98.8563C196.971 99.0057 197.866 98.8029 198.588 98.2924C199.31 97.782 199.799 97.0057 199.948 96.1344L202.766 79.7075C202.915 78.8362 202.712 77.9412 202.202 77.2194C201.691 76.4976 200.915 76.0081 200.044 75.8587L137.622 65.1529C136.751 65.0034 135.856 65.2063 135.134 65.7167C134.412 66.2272 133.923 67.0035 133.773 67.8748L130.956 84.3016C130.806 85.1729 131.009 86.068 131.52 86.7897C132.03 87.5115 132.806 88.001 133.678 88.1504ZM139.78 72.2871L195.632 81.866L193.941 91.7221L138.09 82.1432L139.78 72.2871ZM170.285 111.339L163.523 150.763C163.374 151.635 163.577 152.53 164.087 153.251C164.597 153.973 165.374 154.463 166.245 154.612L192.528 159.12C193.399 159.269 194.294 159.066 195.016 158.556C195.738 158.045 196.227 157.269 196.377 156.398L203.138 116.973C203.288 116.102 203.085 115.207 202.575 114.485C202.064 113.764 201.288 113.274 200.416 113.125L174.134 108.617C173.262 108.467 172.367 108.67 171.645 109.181C170.924 109.691 170.434 110.467 170.285 111.339ZM176.292 115.751L196.004 119.132L190.37 151.986L170.657 148.605L176.292 115.751Z" fill="white"/>
</svg>
